<svg width="263" height="525" viewBox="0 0 263 525" fill="none" xmlns="http://www.w3.org/2000/svg">
 <mask id="mask0_2_4" style="mask-type:alpha" maskUnits="userSpaceOnUse" x="0" y="0" width="263" height="525">
 <rect x="0.440352" y="0.503279" width="261.446" height="523.847" rx="25.3166" fill="#1D1D1D" stroke="url(#paint0_linear_2_4)" stroke-width="0.318448"/>
 </mask>
 <g mask="url(#mask0_2_4)">
 <path class="sky" d="M-28.3643 -12.4545L-28.3643 524.308H273.612L273.612 -12.4545H-28.3643Z" fill="url(#paint1_linear_2_4)"/>
 <path class="mountain7" d="M-28.3642 354.192L-25.4428 351.921L-22.9589 353.628L-13.6726 346.756L-9.63626 346.897L-2.22693 338.516H3.02311L6.05741 333.45L10.9264 330.91L18.3075 320.412L33.7189 346.051L38.7714 346.756L39.9568 352.626L51.346 359.597L52.0658 366.088L56.2997 371.026L58.0779 378.025L68.6486 378.434L81.1809 386.195L81.7031 393.25L87.2354 397.032L91.4693 401.787L103.127 398.866L116.167 408.899H121.107L124.395 414.712L130.195 413.301L142.276 424.83H153.27L157.561 429.768L168.385 434.03L173.042 432.83L192.349 446.461L219.658 469.743L-30.58 471.366L-28.3642 354.192Z" fill="#F4815F"/>
 <g class="mountain7" style="mix-blend-mode:screen" opacity="0.5">
 <g style="mix-blend-mode:screen" opacity="0.5">
 <path d="M18.3074 320.412L17.2489 332.519L17.7852 336.752L13.7206 340.632L13.142 345.811L9.13391 349.804L18.3074 348.986L22.7812 346.756L33.7188 346.051L18.3074 320.412Z" fill="#F9B69C"/>
 </g>
 <g style="mix-blend-mode:screen" opacity="0.5">
 <path d="M39.9567 352.626L32.0675 358.045L29.5978 363.322L22.8941 366.271L20.9324 371.097L35.6664 367.851L40.0696 361.854L47.7189 366.976L52.0657 366.087L51.3459 359.597L39.9567 352.626Z" fill="#F9B69C"/>
 </g>
 <g style="mix-blend-mode:screen" opacity="0.5">
 <path d="M58.0779 378.025L53.1243 380.607H64.4147L68.2111 383.994L76.1426 386.463L76.7918 391.67L81.7031 393.25L81.1809 386.195L68.6486 378.434L58.0779 378.025Z" fill="#F9B69C"/>
 </g>
 <g style="mix-blend-mode:screen" opacity="0.5">
 <path d="M91.4694 401.787L98.7517 402.958L102.633 401.787L105.935 404.609L116.167 408.899L103.127 398.866L91.4694 401.787Z" fill="#F9B69C"/>
 </g>
 <g style="mix-blend-mode:screen" opacity="0.5">
 <path d="M36.8238 374.794L40.5355 383.02H43.6122L50.6263 391.218L63.0176 393.039L71.4854 401.364L77.314 403.071L80.6588 414.416L71.4854 407.488H60.5478L58.7413 399.953L46.3924 398.782L40.5355 401.716L37.8682 397.695L41.3964 391.204L35.4972 386.689L36.8238 374.794Z" fill="#F9B69C"/>
 </g>
 </g>
 <path class="mountain6" d="M-36.7332 394.139L-26.8541 391.317L-21.6746 394.139L-16.1705 391.317L-8.76122 398.965L1.14611 400.249L4.64613 405.597L15.7531 406.486L23.487 411.128L29.1322 410.013L33.7189 416.363L40.7331 421.782L51.967 424.829L52.0658 428.823H62.0578L68.6486 422.953L72.6426 424.59L81.7031 424.124L103.818 432.35L98.5258 445.276V462.42H-40.7272L-36.7332 394.139Z" fill="#C75378"/>
 <path class="mountain5" d="M46.7311 441.282L60.1808 436.696L64.076 438.996L69.0014 436.696L77.1164 438.996L83.8201 432.11H93.3463L96.4371 428.794L101.546 423.179L109.844 421.302L113.726 418.042L127.33 417.182L132.27 418.353L136.179 415.065L143.066 408.899L147.794 410.126L153.44 407.502L159.268 403.537L162.5 397.427H165.901L176.218 385.193L199.307 383.782L225.656 367.089L247.362 375.443L255.575 368.26L279.61 363.322V457.862L173.198 481.822L97.4532 483.035L26.9305 448.464L39.7169 441.635L46.7311 441.282Z" fill="#A65574"/>
 <g class="mountain5" style="mix-blend-mode:screen" opacity="0.58">
 <g style="mix-blend-mode:screen" opacity="0.58">
 <path d="M165.901 397.427H170.22L173.042 393.547H178.617L184.841 386.957L199.307 383.782L176.218 385.193L165.901 397.427Z" fill="#63BACD"/>
 </g>
 <g style="mix-blend-mode:screen" opacity="0.58">
 <path d="M93.3464 432.111L98.6388 431.292L100.756 428.004L107.812 428.823L114.516 424.477H126.159L128.516 421.655H114.276L113.726 418.042L109.845 421.302L101.546 423.179L93.3464 432.111Z" fill="#63BACD"/>
 </g>
 <g style="mix-blend-mode:screen" opacity="0.58">
 <path d="M132.27 418.353L138.748 417.421L141.57 413.894H149.911L156.036 414.486L159.565 410.719L158.506 407.897L159.268 403.537L153.44 407.502L147.794 410.126L143.066 408.899L132.27 418.353Z" fill="#63BACD"/>
 </g>
 </g>
 <path class="mountain4" d="M56.4125 462.462L67.4207 457.044H80.6587L90.2837 453.121L98.5257 455.872L121.332 444.231L128.516 446.701H149.953L159.917 442.933L167.905 445.529L188.567 454.701L211.105 462.462L203.188 488.792L31.5454 490.203L56.4125 462.462Z" fill="#6D5670"/>
  <g class="m3">
 <path class="mountain3"  transform="20px" d="M228.097 414.486L225.275 412.37L223.694 414.486H220.871L219.996 416.786H217.88L214.323 421.02H211.896L210.668 423.842H208.381V426.494H206.97L205.234 428.611H203.117L201.184 431.786H199.603L197.317 434.439H194.96L193.549 436.033H191.813L190.232 439.208H188.468L186.182 443.088H182.456L180.014 445.741C180.014 445.741 177.94 445.219 177.657 445.741C177.375 446.263 175.258 449.622 175.258 449.622L170.319 449.974C170.319 449.974 168.71 452.627 167.567 452.444C166.423 452.26 164.49 451.922 164.49 451.922L159.198 454.391H157.476L156.206 456.691L152.508 456.874L150.927 459.88C148.507 460.983 146.152 462.222 143.871 463.591C143.165 464.296 140.145 467.655 140.145 467.655H135.403C134.513 468.375 133.57 469.026 132.58 469.602C131.087 470.06 129.55 470.358 127.994 470.491H124.113L121.826 473.144H106.302L103.479 471.733L100.135 472.085L98.2012 469.447L95.7314 469.094L93.8403 467.302H91.935L89.2959 465.468L85.5983 466.173L81.5478 463.887L78.7252 464.593L75.5498 462.758H73.9127L71.2736 461.249L67.9429 462.744L64.2171 458.765L59.2775 459.471L55.2412 455.054L52.4186 455.943L50.8379 451.541L45.2774 451.188L39.5475 446.433L35.3136 446.616L33.1402 442.03L30.8963 442.736L29.8378 441.677L27.368 442.736L23.4305 438.855L21.7228 439.561L19.4365 434.806L17.8558 435.342L16.0917 433.578L13.7348 433.761L10.7993 429.528H6.33963L4.43437 426.311L3.02307 425.789L0.129906 426.325V423.094H-3.68061L-7.02539 417.45L-20.461 412.342L-28.3643 404.087V531.364H228.097V414.486Z" fill="#504F6D"/>
  </g>
 <path class="mountain2" d="M-29.8461 419.778L-27.828 419.242V416.151L-26.6707 413.329L-25.5981 416.547V419.143L-24.6102 421.612L-23.3118 420.032L-22.2533 415.926L-21.5053 419.27L-21.1384 423.164H-18.6404L-17.7795 421.499V420.737L-16.9751 418.014L-16.6081 421.231L-17.1585 421.979L-16.6081 423.15L-15.5497 422.402V421.288L-15.1122 419.425L-14.6182 421.711V422.642L-13.8702 423.813L-13.0658 425.055V426.198L-12.2896 425.916V424.745L-11.6686 424.194L-11.8944 423.32L-11.4428 422.148L-10.85 423.559L-11.1887 423.969L-10.9206 425.14V425.718L-10.5113 426.551L-10.1867 425.888L-10.2573 425.422L-9.89034 424.59L-9.72099 425.662L-9.89034 426.057L-9.6363 426.946L-9.18469 426.466L-8.90243 425.21L-8.7613 426.438L-8.3238 427.398L-8.14033 428.061L-7.77339 427.299L-7.32177 426.255L-7.13831 428.061V428.893L-6.89838 429.345L-6.07983 430.488L-5.92459 431.109L-5.4024 430.77L-5.24716 429.571L-4.75321 428.639L-4.59796 430.149V431.264C-4.59796 431.264 -4.16046 432.012 -4.13223 432.096C-4.10401 432.181 -4.03344 433.084 -4.03344 433.084L-3.51126 432.379V431.758L-3.35602 430.77L-3.14433 431.758L-2.89029 432.435L-3.04553 433.451L-2.36811 434.777L-2.05762 434.001L-2.21286 433.07L-1.87415 431.363L-1.43665 433.07V433.691L-1.15439 434.961L-0.970921 436.16C-0.74427 435.8 -0.536987 435.428 -0.349949 435.045C-0.349949 434.947 -0.505192 434.241 -0.505192 434.241L0.0452156 433.042L0.256912 435.088V436.019C0.256912 436.019 0.539173 436.979 0.567398 437.162C0.595623 437.345 1.6541 437.162 1.6541 437.162V435.836L2.02104 434.848L2.23273 436.259V437.303L2.67023 438.545L3.22064 437.896V436.386L3.65815 438.545V439.688L3.96863 440.647L4.46259 439.533L4.90009 438.051V439.377L5.29525 440.337V440.958L6.22671 440.647V439.504L6.48075 438.178L6.94647 439.589V440.732L7.44043 442.707L8.03318 442.115L8.21665 441.635L7.90616 440.958L8.56947 439.617L8.93641 441.226C8.93641 441.226 8.7106 441.818 8.7106 441.861C8.7106 441.903 9.00698 442.764 9.00698 442.764L9.50093 443.808L9.37391 444.104L9.6844 443.653V443.004L9.85376 442.482L10.0655 443.088V443.61L10.2771 444.372H11.2792L11.8013 443.639L12.38 442.101L12.9022 443.949L12.507 445.007L13.1139 446.884L13.7348 446.249C13.8484 445.787 13.9052 445.314 13.9042 444.838L14.7792 441.79V446.644L15.132 447.886L15.8659 447.096L16.1623 446.037L16.5998 443.864L17.0091 446.221L16.6844 447.632L17.0091 449.509H18.4204V448.479L18.5615 446.602C18.7228 446.121 18.9112 445.65 19.126 445.191V450.666C19.126 450.666 19.9728 451.752 19.9728 451.639C19.9728 451.526 20.5373 450.228 20.5373 450.228L21.0595 448.436L21.4123 450.849V452.557L21.8357 453.699C21.8357 453.699 22.5837 452.528 22.6119 452.444C22.6401 452.359 22.3155 451.414 22.4002 451.272C22.4849 451.131 23.1623 449.015 23.1623 449.015L23.7551 451.625L23.1623 452.768L23.6845 454.447L24.5313 455.647C24.9766 455.246 25.4006 454.822 25.8014 454.377C25.6808 453.916 25.6238 453.442 25.6321 452.966C25.7168 452.641 26.0978 450.764 26.0978 450.764L26.4789 453.883C26.338 454.124 26.2558 454.395 26.239 454.673C26.239 454.998 26.4789 457.058 26.4789 457.058C26.4789 457.058 27.4809 456.493 27.4809 456.324C27.4809 456.155 27.5656 454.532 27.5656 454.419C27.5656 454.306 27.9466 453.008 27.9466 453.008L28.3277 454.715V455.858L28.737 457.269V458.68L29.4991 460.388L30.5293 458.977V456.564L31.9406 453.008C32.0253 452.796 32.2652 456.155 32.2934 456.239C32.3217 456.324 31.7713 457.919 31.7713 458.003C31.7713 458.088 32.2652 460.063 32.2652 460.063L32.1805 461.206L33.239 462.208L34.6503 460.797L34.3398 458.553L35.0031 454.8L35.7088 459.259L35.356 461.333C35.5531 462.292 35.6852 463.263 35.7511 464.24C35.6822 465.328 35.7247 466.42 35.8781 467.5L37.0213 470.322L37.6423 468.643L37.4165 466.921L38.2915 463.873V461.94L38.9548 464.677V466.314L39.3499 469.362V470.336L40.3661 469.673L40.4508 467.387L41.4245 464.917V463.633L42.1302 468.219C42.0859 468.849 42.0859 469.48 42.1302 470.11C42.2149 470.378 42.5254 471.831 42.5254 471.831L43.104 470.957L43.6262 468.36L44.3742 466.78V468.812L44.106 471.154L44.3742 472.791L45.5173 473.412L46.3923 472.128L46.1665 470.237L46.9568 468.346L47.5355 472.311L48.2411 474.654L50.6262 475.839C50.6262 475.839 51.7694 473.017 51.7694 472.847C51.7694 472.678 51.9811 469.503 51.9811 469.503L52.9266 468.36V471.535L52.4045 472.946L52.9266 475.02L52.4891 476.163L53.4206 478.59L52.6303 479.296L53.7311 481.497L55.0154 479.155L54.7472 477.828C54.7472 477.828 55.7634 476.333 55.6222 476.107C55.4748 475.708 55.3615 475.297 55.2835 474.879C55.2835 474.879 56.2714 469.884 56.3279 470.11L57.2593 474.527C57.2104 474.756 57.1346 474.978 57.0335 475.19C56.8783 475.5 57.9085 477.349 57.9085 477.349L57.471 478.28L57.9085 480.044C57.9085 480.044 59.1928 477.49 59.1364 477.349C58.921 476.668 58.7466 475.976 58.6142 475.274L59.4469 472.537L60.2372 475.543L60.7594 476.812V478.887L62.1707 479.987L63.8924 476.643V473.821L64.2453 472.283C64.2453 472.283 64.7675 473.877 64.8239 474.089C64.7941 474.436 64.7182 474.778 64.5981 475.105L65.6566 479.733L66.715 477.843C66.6228 477.377 66.5662 476.905 66.5457 476.431C66.5457 476.163 67.2937 473.482 67.2937 473.482L68.2251 476.7L67.7876 477.532L68.6627 480.354L71.4853 481.441L72.7695 478.534V477.433L73.207 475.796L74.082 478.266C74.082 478.266 73.6869 478.661 73.7292 478.802C73.7716 478.943 74.3925 481.455 74.3925 481.455L75.9732 480.933V478.774C75.9732 478.774 76.5518 477.193 76.6365 477.447L77.9208 481.455V482.386L79.8119 482.697C80.0531 481.809 80.2463 480.91 80.3905 480.001C80.3905 479.733 81.0962 478.675 81.0962 478.59C81.0962 478.506 80.5176 476.657 80.5176 476.657L81.0962 473.172L81.8865 476.615V482.443C81.8865 482.443 83.2978 480.326 83.2978 480.199C83.2978 480.072 83.566 477.913 83.566 477.913L84.314 481.003L85.4995 483.741L86.1204 481.709L85.81 480.735C85.9464 480.095 86.1208 479.464 86.3321 478.844L87.3906 481.892L88.0116 484.362H89.6487L89.9451 483.346L89.691 481.017L90.5237 478.943L91.1447 480.975V481.991L91.4552 482.965V484.728L93.0358 486.14C92.8804 485.745 92.776 485.333 92.7253 484.912C92.7253 484.644 93.304 483.063 93.304 482.922C93.304 482.781 93.6144 480.467 93.6144 480.467L94.2354 483.176V484.898L94.9411 486.436L95.3786 485.335V483.444L96.6064 480.467L97.0016 483.924L96.8745 484.855L97.6649 486.803L99.0762 488.524L100.219 487.508L99.8242 486.887C99.8242 486.887 101.108 482.527 101.235 482.654C101.362 482.781 101.941 485.702 101.983 486.013C101.925 486.71 101.821 487.403 101.673 488.087L102.252 489.272L105.074 490.768V488.651L106.048 484.333L107.459 487.057L106.754 489.963C106.754 489.963 108.518 494.465 108.518 494.197C108.518 493.928 110.197 487.847 110.197 487.847V484.503L111.256 481.412L112.399 486.083L111.524 487.325L112.413 491.036V493.068L113.74 495.975L113.119 497.47L114.615 501.971L115.758 498.938C115.758 498.938 115.236 497.033 115.236 496.765C115.236 496.497 116.562 494.295 116.294 494.027C116.026 493.759 115.504 493.152 115.772 492.8C116.04 492.447 117.719 485.66 117.719 485.66L119.046 491.135L118.213 492.546L119.046 495.368L120.048 497.216L121.149 493.717L121.699 490.895L122.673 493.801V496.355H124.169L125.312 494.281L125.002 492.955C125.002 492.786 125.58 490.923 125.665 491.544C125.75 492.165 126.286 494.592 126.286 494.592L126.018 495.382L126.286 497.456L127.697 499.841C127.886 499.327 128.032 498.798 128.135 498.26C128.135 498.091 127.697 497.244 127.697 497.244C127.697 497.244 128.318 493.322 128.361 493.59L128.897 496.807L128.728 497.823C128.728 497.823 129.349 499.234 129.391 499.417C129.895 499.712 130.424 499.962 130.972 500.165L131.593 497.696L131.903 495.452L132.298 496.736V498.275L132.778 500.264L133.399 501.802L133.709 501.224L133.484 500.081L134.584 496.736L136.617 502.381L135.996 502.86L136.617 504.187L137.591 503.044C137.531 502.568 137.441 502.097 137.322 501.633C137.252 501.633 137.591 498.26 137.591 498.26L138.381 501.83L138.113 503.157L138.649 504.794L139.891 505.146L139.792 504.046L140.272 501.492L140.822 503.566V505.683L142.742 507.277L142.516 506.092L142.163 504.949L142.742 500.236L143.984 506.67V507.997L145.085 505.485L145.437 503.058L146.411 507.997L147.244 506.416L147.681 503.721L147.95 506.543L148.839 509.944L150.56 508.716C150.596 507.549 150.7 506.386 150.871 505.231C150.998 505.231 151.704 509.069 151.704 509.069L152.931 524.435H-36.7333L-29.8461 419.778Z" fill="#0E4764"/>
 <path class="mountain1" d="M291.987 425.337L288.995 424.759V421.457L287.273 418.409L285.692 421.852V424.674L284.281 427.327L282.362 425.634L280.795 421.245L279.694 424.815L279.144 429.049H275.432L274.148 427.256V426.382L272.948 423.475L272.398 426.918L273.231 427.708L272.398 428.964L270.831 428.174V426.988L270.182 424.999L269.448 427.44V428.428L268.347 429.683L267.148 431.01V432.237L266.005 431.941V430.685L265.087 430.093L265.426 429.147L264.763 427.906L263.888 429.429L264.396 429.867L264.001 431.109L264.099 431.73L263.507 432.633L263.027 431.913L263.14 431.419L262.589 430.516L262.335 431.659L262.589 432.068L262.222 433.014L261.559 432.506L261.15 431.095L260.938 432.407L260.289 433.437L260.007 434.157L259.456 433.338L258.793 432.223L258.511 434.142V435.045L258.172 435.525L256.944 436.739L256.718 437.402L255.942 437.035L255.716 435.751L254.982 434.763L254.757 436.386V437.67C254.757 437.67 254.107 438.46 254.065 438.559C254.023 438.658 253.924 439.617 253.924 439.617L253.148 438.855V438.192L252.922 437.134L252.597 438.192L252.23 438.926L252.456 440.012L251.44 441.423L250.974 440.591L251.2 439.603L250.692 437.783L250.043 439.603V440.266L249.634 441.677L249.351 442.961C249.022 442.585 248.716 442.189 248.434 441.776C248.434 441.677 248.66 440.915 248.66 440.915L247.827 439.631L247.503 441.818V442.806C247.503 442.806 247.093 443.836 247.037 444.034C246.98 444.231 245.428 444.034 245.428 444.034V442.623L244.878 441.565L244.553 442.976V444.09L243.904 445.431L243.071 444.739V443.117L242.422 445.431V446.658L241.956 447.688L241.222 446.503L240.573 444.909V446.32L239.98 447.35V448.013L238.569 447.688V446.461L238.202 445.05L237.511 446.574V447.801L236.777 449.918L235.902 449.283L235.619 448.775L236.085 448.055L235.097 446.644L234.547 448.366C234.547 448.366 234.885 449.001 234.885 449.057C234.885 449.114 234.434 450.017 234.434 450.017L233.686 451.131L233.869 451.442L233.404 450.962V450.271L233.164 449.706L232.853 450.355L232.952 450.92L232.642 451.738H231.16L230.369 450.962L229.523 449.311L228.732 451.287L229.325 452.415L228.422 454.419L227.504 453.742C227.307 453.601 227.236 452.232 227.236 452.232L225.924 448.973V454.165L225.402 455.492L224.315 454.645L223.863 453.516L223.186 451.075L222.579 453.587C222.579 453.587 223.059 454.998 223.059 455.153C223.059 455.308 222.579 457.171 222.579 457.171H220.49V456.07L220.279 454.052C220.032 453.564 219.754 453.093 219.446 452.641V458.483C219.446 458.483 218.176 459.64 218.176 459.527C217.923 459.042 217.645 458.571 217.343 458.116L216.553 456.197L216.031 458.779V460.6L215.395 461.813C215.395 461.813 214.281 460.557 214.238 460.402C214.196 460.247 214.676 459.301 214.549 459.146C214.422 458.991 213.42 456.719 213.42 456.719L212.545 459.541L213.42 460.769L212.629 462.561L211.359 463.845C211.359 463.845 209.482 462.589 209.482 462.434C209.482 462.279 209.877 461.333 209.75 461.023C209.623 460.712 209.059 458.666 209.059 458.666L208.494 461.996C208.694 462.237 208.817 462.532 208.847 462.843C208.847 463.196 208.494 465.383 208.494 465.383C208.494 465.383 207.012 464.79 207.012 464.593C207.012 464.395 206.885 462.674 206.885 462.547C206.885 462.42 206.321 460.981 206.321 460.981L205.756 462.801V464.028L205.149 465.595L205.234 467.161L204.105 468.981L202.581 467.443V464.903L200.45 461.093C200.21 462.235 200.035 463.389 199.928 464.55C199.928 464.649 200.718 466.343 200.718 466.441C200.718 466.54 199.97 468.643 199.97 468.643L200.097 469.87L198.53 470.943L196.371 469.433L196.823 467.034L195.835 463.027L194.79 467.782L195.313 469.997C195.019 471.016 194.821 472.06 194.72 473.116C194.819 474.281 194.753 475.454 194.522 476.601L192.815 479.578L191.897 477.786L192.222 475.952L190.909 472.692V470.618L189.921 473.539V475.289L189.456 478.59V479.635L187.946 478.929L187.819 476.474L186.407 473.835V472.424L185.363 477.335C185.429 478.01 185.429 478.691 185.363 479.366C185.236 479.649 184.77 481.201 184.77 481.201L183.923 480.255L183.133 477.433L182.018 475.74V477.913L182.413 480.411L182.018 482.16L180.311 482.824L178.998 481.412L179.323 479.381L178.151 477.349L177.304 481.582L176.26 484.079L172.732 485.349C172.732 485.349 171.024 482.287 171.024 482.146C171.024 482.005 170.714 478.562 170.714 478.562L169.302 477.335V480.735L170.093 482.287L169.302 484.503L169.952 485.73L168.145 488.2C168.145 488.2 164.984 485.97 165.181 485.73C165.394 485.312 165.56 484.872 165.675 484.418C165.675 484.418 164.264 479.084 164.137 479.31L162.726 484.023C162.798 484.273 162.907 484.511 163.05 484.728C163.276 485.053 161.738 487.043 161.738 487.043L162.387 488.03L161.738 489.921C161.073 489.016 160.461 488.074 159.903 487.099C160.224 486.382 160.489 485.642 160.693 484.884L159.452 481.963L158.28 485.166L157.504 486.577V488.792L155.458 489.978L152.903 486.393V483.416L152.381 481.765C152.381 481.765 151.591 483.459 151.534 483.698C151.577 484.077 151.687 484.445 151.859 484.785L150.292 489.738L148.726 487.706C148.87 487.199 148.96 486.679 148.994 486.154C148.994 485.871 147.879 482.993 147.879 482.993L146.468 486.436L147.117 487.325L145.804 490.415L141.683 491.572L139.919 488.383V487.198L139.27 485.448L137.957 488.087C137.957 488.087 138.55 488.51 138.48 488.651C138.409 488.792 137.492 491.473 137.492 491.473L135.135 490.909V488.595C135.135 488.595 134.288 486.901 134.147 487.184L132.256 491.417V492.405L129.433 492.729C129.085 491.809 128.802 490.866 128.586 489.907C128.586 489.625 127.542 488.496 127.542 488.355C127.542 488.214 128.389 486.281 128.389 486.281L127.542 482.555L126.371 486.238V492.461C126.371 492.461 124.211 490.203 124.211 490.062C124.211 489.921 123.816 487.607 123.816 487.607L122.701 490.909L120.937 493.83L120.02 491.657L120.471 490.613C120.261 489.916 119.997 489.237 119.681 488.581L118.115 491.84L117.197 494.479H114.77L114.332 493.392L114.713 490.895L113.471 488.679L112.554 490.852V491.939L112.102 492.983V494.874L109.746 496.384C109.969 495.97 110.121 495.521 110.197 495.057C110.197 494.775 109.35 493.082 109.35 492.941C109.35 492.8 108.899 490.316 108.899 490.316L107.981 493.223V495.057L106.937 496.708L106.288 495.523V493.491L104.453 490.302L103.86 493.999L104.058 494.987L102.887 497.061L100.854 498.895L99.1466 497.809L99.7394 497.146C99.1603 495.626 98.4911 494.141 97.7353 492.701C97.6083 492.884 96.691 495.96 96.6204 496.285C96.706 497.035 96.8571 497.776 97.072 498.5L96.2253 499.77L91.9914 501.379V499.121L90.5801 494.507L88.3502 497.329L89.3946 500.448C89.3946 500.448 86.7837 505.259 86.7837 504.977C86.7837 504.695 84.2998 498.19 84.2998 498.19V494.606L82.6909 491.29L80.9832 496.285L82.2957 497.611L80.9832 501.576V503.749L79.0215 506.811L79.9388 508.42L77.709 513.232L76.0013 509.986C76.3078 509.23 76.5717 508.458 76.7916 507.672C76.7916 507.39 74.8299 505.033 75.2251 504.751C75.6203 504.469 76.3965 503.806 76.0154 503.425C75.6344 503.044 73.1928 495.791 73.1928 495.791L71.2311 501.633L72.4731 503.044L71.2311 506.12L69.8198 508.095L68.1968 504.342L67.3783 501.294L65.967 504.413V507.15H63.7371L62.0294 504.935L62.4811 503.524C62.4811 503.34 61.6343 501.351 61.4931 501.971C61.352 502.592 60.5758 505.231 60.5758 505.231L60.971 506.078L60.5758 508.293L58.4871 510.833C58.2113 510.293 57.9936 509.725 57.8379 509.14C57.8379 508.956 58.4871 508.053 58.4871 508.053C58.4871 508.053 57.5697 503.82 57.4992 504.144L56.6524 507.616L56.9205 508.702C56.9205 508.702 56.0032 510.254 55.9326 510.395C55.1661 510.717 54.3787 510.985 53.5758 511.2L52.6584 508.561L52.2068 506.162L51.614 507.573V509.224L50.8943 511.341L49.9769 512.992L49.5253 512.385L49.8499 511.157L48.1846 507.517L45.1785 513.599L46.0959 514.121L45.1785 515.532L43.7672 514.304C43.8524 513.767 43.9846 513.238 44.1624 512.724C44.2753 512.724 43.7672 509.111 43.7672 509.111L42.5394 512.949L42.9345 514.36L42.1442 516.11L40.2954 516.491L40.4507 515.306L39.7168 512.568L38.8982 514.784V517.041L36.0756 518.735L36.4002 517.465L36.9224 516.237L36.0756 511.186L34.2127 518.1V519.511L32.5756 516.83L32.0534 514.233L30.6421 519.511L29.4002 517.818L28.751 514.995L28.3558 518.057L27.0151 521.627L24.4606 520.301C24.4098 519.049 24.2588 517.804 24.009 516.576C23.5121 517.918 23.0974 519.289 22.7671 520.682L20.9324 524.308H302.219L291.987 425.337Z" fill="#083753"/>
  <g class="right">
 <path d="M273.626 284.896C242.234 286.368 211.095 291.256 180.762 299.472L175.47 313.342C168.979 316.109 162.655 319.251 156.53 322.754C149.714 326.987 149.939 328.159 149.939 328.159V334.974C144.389 336.883 139.385 340.113 135.361 344.386C128.77 351.441 130.181 351.201 130.181 351.201L140.526 373.778L176.317 380.593C177.083 382.844 178.218 384.951 179.675 386.83C181.792 389.299 184.968 392.474 184.968 392.474L198.022 394.591L211.783 423.164L205.178 457.269L191.77 484.079L187.296 524.294H273.612L273.626 284.896Z" fill="#0E4764"/>
 <path d="M130.195 351.215L140.54 373.792L176.331 380.607L184.841 374.032V367.442L195.905 363.689L198.488 359.216L215.89 353.106V349.338L163.206 352.866L158.266 350.51L130.195 351.215Z" fill="#185770"/>
 <path d="M149.954 334.988L171.081 333.351L174.736 328.765L189.555 326.169L190.486 323.827L149.954 328.173V334.988Z" fill="#185770"/>
 <path d="M175.47 313.357L185.547 310.774L188.256 307.092L195.073 305.356L196.371 302.181L180.762 299.486L175.47 313.357Z" fill="#185770"/>
 <path d="M198.037 394.605L212.135 396.143L214.803 401.547H218.642L219.658 408.842L211.797 423.179L198.037 394.605Z" fill="#185770"/>
 <path d="M191.785 484.093L199.293 482.217L206.222 473.976L214.803 470.689L224.837 457.044H213.067L206.871 448.563L205.192 457.284L191.785 484.093Z" fill="#185770"/>
 <path d="M200.492 295.606H146.27V299.486H200.492V295.606Z" fill="#0E4764"/>
 <path d="M201.847 269.798L160.849 263.758V295.606H201.847V269.798Z" fill="#0E4764"/>
 <path d="M153.479 261.254L153.068 264.046L209.226 272.307L209.637 269.515L153.479 261.254Z" fill="#0E4764"/>
 <path d="M154.681 297.539H151.859V326.649H154.681V297.539Z" fill="#0E4764"/>
 <path d="M165.401 296.718L152.112 315.82L154.43 317.432L167.718 298.33L165.401 296.718Z" fill="#0E4764"/>
 <path d="M179.549 275.258H169.909V284.896H179.549V275.258Z" fill="#276B7E"/>
 <path d="M242.676 289.834C242.436 288.79 243.466 287.915 243.847 286.914C244.398 285.503 243.622 283.908 243.353 282.384C243.052 280.034 243.68 277.66 245.103 275.766C246.522 273.899 248.178 272.224 250.029 270.785C248.407 271.651 246.693 272.332 244.92 272.817C244.272 270.813 244.272 268.655 244.92 266.651C245.329 265.72 246.007 264.944 246.472 264.055C248.194 260.767 247.051 256.04 249.944 253.712L245.541 255.49C246.482 251.087 247.583 246.713 248.843 242.367L246.557 243.03C246.91 235.975 249.648 236.821 251.158 224.686C254.093 235.185 256.606 237.922 258.059 242.691C256.848 242.454 255.673 242.066 254.559 241.534C254.473 245.76 255.412 249.943 257.297 253.726C258.398 255.913 259.837 258.142 259.654 260.583L256.831 260.654L259.654 266.877C260.825 269.417 261.983 272.521 260.501 274.877C260.294 275.131 260.166 275.44 260.134 275.766C260.134 276.246 260.642 276.556 261.037 276.825C264.184 278.913 264.932 283.132 265.412 286.885L242.676 289.834Z" fill="#0E4764"/>
 <path d="M254.644 288.325C254.317 286.852 254.317 285.325 254.644 283.852C255.429 280.098 256.631 276.444 258.229 272.958C259.104 270.879 259.998 268.805 260.91 266.736C261.379 265.865 261.649 264.901 261.701 263.914C259.792 265.016 257.624 265.591 255.42 265.579C255.519 262.644 258.85 260.71 259.301 257.804C259.471 256.759 261.602 249.337 263.775 247.672C262.032 248.394 260.182 248.823 258.299 248.942C260.874 243.609 262.553 237.888 263.267 232.01C262.423 232.561 261.451 232.887 260.444 232.955C259.64 230.542 261.574 228.2 262.674 225.9C264.834 221.385 263.789 212.043 266.104 207.556C268.235 211.479 268.785 217.518 269.547 221.935C270.05 223.564 270.672 225.153 271.41 226.69C272.215 228.609 274.007 230.189 274.078 232.334C272.754 231.27 271.09 230.719 269.392 230.782C270.107 231.436 270.708 232.203 271.17 233.054C271.659 234.02 272.038 235.037 272.299 236.088C273.443 240.208 274.035 244.554 276.533 248.124C278.297 250.65 276.703 252.625 277.648 253.528C276.891 252.858 275.975 252.391 274.988 252.171C274 251.952 272.973 251.986 272.003 252.272C275.68 257.452 277.769 263.591 278.015 269.939C276.485 269.573 274.916 269.398 273.344 269.417C277.342 274.325 279.692 280.368 280.062 286.688C274.162 286.476 267.826 287.605 261.926 287.591C259.231 287.605 257.057 287.012 254.644 288.325Z" fill="#0E4764"/>
 <path d="M241.067 295.027C241.272 294.097 241.272 293.135 241.067 292.205C240.571 289.818 239.808 287.494 238.795 285.277C238.24 283.95 237.671 282.633 237.087 281.326C236.788 280.764 236.619 280.142 236.593 279.506C237.807 280.206 239.186 280.571 240.587 280.564C240.587 278.701 238.4 277.474 238.118 275.625C238.019 274.962 236.706 270.277 235.295 269.177C236.405 269.634 237.583 269.906 238.781 269.981C237.139 266.577 236.07 262.925 235.62 259.172C236.159 259.527 236.782 259.736 237.426 259.779C237.948 258.241 236.706 256.745 236.015 255.292C234.603 252.47 235.309 246.473 233.827 243.651C232.416 246.148 232.12 249.986 231.64 252.794C231.321 253.834 230.924 254.848 230.454 255.828C229.946 257.056 228.803 258.058 228.761 259.384C229.603 258.71 230.66 258.359 231.738 258.396C231.288 258.802 230.906 259.279 230.609 259.807C230.298 260.423 230.056 261.071 229.89 261.74C229.17 264.365 228.789 267.173 227.222 269.388C226.093 270.997 227.109 272.21 226.517 272.831C226.997 272.405 227.578 272.107 228.205 271.967C228.832 271.826 229.485 271.847 230.101 272.027C227.753 275.337 226.424 279.26 226.277 283.315C227.252 283.085 228.252 282.976 229.255 282.991C226.681 286.119 225.164 289.982 224.922 294.025C228.676 293.884 232.698 294.604 236.466 294.604C238.146 294.576 239.571 294.195 241.067 295.027Z" fill="#0E4764"/>
 <path d="M247.672 296.212C247.832 295.492 247.832 294.745 247.672 294.025C247.289 292.192 246.702 290.408 245.922 288.706C245.499 287.69 245.061 286.678 244.61 285.672C244.378 285.236 244.248 284.754 244.229 284.261C245.159 284.801 246.216 285.083 247.291 285.079C247.291 283.668 245.626 282.709 245.4 281.283C245.315 280.776 244.271 277.177 243.212 276.345C244.061 276.697 244.963 276.907 245.88 276.966C244.618 274.353 243.798 271.549 243.452 268.669C243.873 268.947 244.36 269.108 244.864 269.134C245.259 267.963 244.313 266.82 243.777 265.691C242.718 263.49 243.241 258.932 242.097 256.774C241.192 259.03 240.626 261.407 240.418 263.829C240.175 264.626 239.873 265.404 239.515 266.157C239.12 267.088 238.245 267.864 238.216 268.88C238.862 268.36 239.674 268.09 240.503 268.118C240.156 268.439 239.865 268.816 239.642 269.233C239.408 269.682 239.224 270.155 239.091 270.644C238.746 272.703 238.054 274.687 237.045 276.514C236.184 277.742 236.96 278.715 236.509 279.153C236.878 278.827 237.325 278.6 237.806 278.494C238.288 278.388 238.788 278.406 239.261 278.546C237.465 281.074 236.445 284.07 236.325 287.168C237.069 286.99 237.832 286.905 238.597 286.914C236.625 289.314 235.464 292.278 235.281 295.38C238.103 295.267 241.251 295.817 244.13 295.817C245.324 295.623 246.55 295.759 247.672 296.212Z" fill="#0E4764"/></g>
  <g class="tree">
 <path d="M4.61784 527.187C4.82953 526.227 3.89807 525.437 3.54525 524.52C3.03718 523.208 3.75694 521.783 3.99686 520.386C4.27392 518.242 3.70159 516.074 2.40209 514.346C1.10984 512.643 -0.398839 511.116 -2.08584 509.803C-0.607414 510.595 0.954653 511.219 2.57145 511.665C3.16677 509.831 3.16677 507.856 2.57145 506.021C2.20451 505.175 1.58354 504.469 1.16015 503.651C-0.406393 500.645 0.63797 496.341 -2.00116 494.211L2.00693 495.833C1.06606 491.817 0.0593338 487.828 -1.01325 483.868L1.07547 484.475C0.750874 477.998 -1.74713 478.83 -3.15843 467.697C-5.8399 477.278 -8.14032 479.762 -9.45283 484.122C-8.34939 483.904 -7.27776 483.549 -6.26329 483.063C-6.18549 486.917 -7.0426 490.732 -8.76129 494.182C-9.76332 496.186 -11.0758 498.204 -10.9206 500.433H-8.39435L-11.0053 506.078C-12.0778 508.392 -13.1222 511.2 -11.7815 513.373C-11.5893 513.606 -11.4713 513.891 -11.4428 514.191C-11.4428 514.629 -11.9085 514.911 -12.2754 515.151C-15.098 517.056 -15.8319 520.908 -16.2694 524.322L4.61784 527.187Z" fill="#02284C"/>
 <path d="M283.152 526.453C281.9 516.954 279.434 507.654 275.813 498.782L281.092 500.857C278.523 495.043 275.733 489.333 272.723 483.727L276.124 484.954C275.912 481.864 273.838 479.211 273.09 476.192C272.567 474.061 272.709 471.817 272.285 469.673C271.862 467.528 270.592 465.298 268.475 464.748C268.8 464.328 269.272 464.048 269.797 463.964C270.321 463.88 270.857 463.999 271.297 464.296C272.807 460.995 269.66 457.552 268.715 454.038C267.854 450.793 268.87 446.983 267.021 444.161C264.904 446.489 266.09 449.706 265.285 452.754C264.87 454.008 264.331 455.219 263.676 456.366C262.281 459.206 261.466 462.295 261.277 465.454L263.422 464.988C262.011 467.09 261.926 469.771 261.503 472.269C260.854 476.021 259.353 479.574 257.114 482.654C258.784 483.146 260.539 483.28 262.265 483.049C259.583 484.954 259.442 488.693 259.061 492.038C259.02 493.255 258.702 494.447 258.13 495.523C256.606 498.006 252.696 498.924 252.372 501.816C254.758 502.442 257.259 502.491 259.668 501.957C258.113 506.772 255.955 511.371 253.247 515.644C251.585 518.369 249.568 520.86 247.249 523.052L253.585 523.321C253.265 525.201 253.658 527.133 254.686 528.739L283.152 526.453Z" fill="#02284C"/>
 <path d="M184.446 545.883C183.768 540.753 182.436 535.731 180.48 530.94L183.303 532.055C181.92 528.913 180.409 525.828 178.772 522.799L180.607 523.462C180.494 521.783 179.365 520.357 178.97 518.735C178.688 517.592 178.758 516.378 178.532 515.207C178.466 514.617 178.239 514.056 177.875 513.585C177.512 513.115 177.027 512.754 176.472 512.54C176.648 512.318 176.9 512.17 177.18 512.126C177.46 512.081 177.746 512.144 177.982 512.3C178.801 510.508 177.093 508.66 176.571 506.755C176.049 504.85 176.26 503.383 175.653 501.449C175.131 503.326 174.863 506.981 174.426 508.618C174.242 509.309 172.647 511.256 172.548 512.949L173.706 512.695C173.088 513.921 172.732 515.262 172.661 516.632C172.316 518.671 171.505 520.603 170.29 522.276C171.205 522.547 172.168 522.619 173.113 522.488C171.702 523.518 171.546 525.578 171.377 527.342C171.357 527.997 171.188 528.639 170.883 529.219C170.065 530.63 167.948 531.053 167.778 532.619C169.067 532.952 170.416 532.976 171.716 532.69C170.875 535.291 169.708 537.775 168.244 540.084C167.345 541.558 166.253 542.906 164.998 544.091L168.413 544.232C168.237 545.25 168.449 546.297 169.006 547.167L184.446 545.883Z" fill="#02284C"/>
 <path d="M237.581 527.977C237.8 526.522 238.351 525.136 239.19 523.927C239.98 523.051 240.593 522.03 240.997 520.922C241.106 519.661 240.927 518.392 240.475 517.211C240.256 516.616 240.198 515.974 240.307 515.349C240.416 514.725 240.688 514.14 241.096 513.655C239.954 514.259 238.619 514.386 237.384 514.008C237.553 512.949 238.541 512.23 239.176 511.369C240.587 509.45 240.348 506.797 240.771 504.441C241.387 501.933 242.422 499.548 243.833 497.386C242.546 498.151 241.094 498.596 239.6 498.684C241.334 495.68 242.605 492.43 243.368 489.046C242.574 489.504 241.634 489.641 240.743 489.427C243.198 486.605 243.452 482.809 243.777 479.042C244.2 474.132 245.188 470.576 245.71 465.82C245.88 469.009 246.797 473.948 247.023 476.742C247.249 479.536 249.747 483.275 250.283 484.686C250.055 484.375 249.758 484.121 249.415 483.945C249.072 483.769 248.693 483.675 248.307 483.67C249.302 487.592 250.503 491.459 251.906 495.255L249.916 495.424C251.774 498.181 252.874 501.378 253.106 504.695L251.271 504.85C251.878 506.261 251.031 507.983 251.666 509.379C251.954 509.884 252.295 510.357 252.682 510.791C254.686 513.486 254.094 517.945 256.916 519.652C255.693 519.687 254.474 519.501 253.317 519.102C252.809 519.356 252.979 520.132 253.317 520.626C254.63 522.827 256.747 524.619 257.368 527.116C257.415 527.226 257.439 527.343 257.439 527.462C257.439 527.581 257.415 527.699 257.368 527.808C257.241 528.005 256.86 528.019 256.789 527.808L257.608 529.219L237.581 527.977Z" fill="#02284C"/>
 <path d="M192.504 536.966C192.648 535.952 193.025 534.986 193.605 534.143C194.148 533.543 194.569 532.843 194.847 532.083C194.925 531.216 194.804 530.343 194.494 529.529C194.344 529.121 194.303 528.68 194.378 528.252C194.452 527.823 194.638 527.422 194.918 527.088C194.132 527.503 193.213 527.589 192.363 527.328C192.49 526.594 193.154 526.115 193.591 525.522C194.579 524.196 194.396 522.375 194.692 520.753C195.109 519.013 195.82 517.357 196.795 515.856C195.908 516.388 194.906 516.697 193.873 516.759C195.068 514.697 195.943 512.466 196.47 510.141C195.924 510.458 195.278 510.554 194.664 510.41C196.357 508.434 196.527 505.866 196.752 503.27C197.035 499.897 197.698 497.414 198.079 494.182C198.192 496.37 198.827 499.827 198.982 501.689C199.138 503.552 200.845 506.176 201.226 507.15C201.065 506.928 200.853 506.747 200.607 506.625C200.361 506.502 200.09 506.44 199.815 506.445C200.497 509.139 201.322 511.795 202.285 514.403L200.873 514.516C202.185 516.412 202.969 518.623 203.146 520.922L201.89 521.021C202.299 521.994 201.72 523.18 202.158 524.139C202.353 524.487 202.585 524.814 202.849 525.113C204.261 526.961 203.809 530.023 205.785 531.208C204.945 531.232 204.109 531.102 203.315 530.827C202.962 530.997 203.089 531.533 203.315 531.872C204.218 533.381 205.672 534.623 206.138 536.331C206.17 536.406 206.187 536.488 206.187 536.57C206.187 536.653 206.17 536.735 206.138 536.81C206.053 536.951 205.785 536.966 205.742 536.81L206.307 537.784L192.504 536.966Z" fill="#02284C"/>
 <path d="M226.009 467.302C226.038 468.429 225.866 469.552 225.5 470.618C225.204 471.324 224.752 471.944 224.414 472.622C223.407 474.485 222.824 476.547 222.706 478.661C223.625 478.651 224.524 478.388 225.303 477.899C223.765 490.302 220.787 488.609 219.446 493.421C222.113 492.729 222.805 491.403 224.894 490.697C223.792 492.174 223.167 493.95 223.101 495.791C223.158 496.832 223.116 497.876 222.974 498.91C222.678 500.208 221.803 501.294 221.379 502.55C220.857 504.102 220.998 505.951 219.968 507.192C219.079 508.208 217.357 508.956 217.668 510.269C219.252 510.364 220.832 510.012 222.226 509.253C218.698 515.645 215.071 522.375 214.916 529.685L241.476 528.273C241.053 525.155 238.654 522.629 237.468 519.807C235.93 516.181 236.17 511.849 233.968 508.519C235.237 509.413 236.764 509.864 238.315 509.803C236.692 508.598 235.547 506.859 235.083 504.892C233.491 500.317 232.264 495.622 231.414 490.852C232.087 491.528 232.903 492.043 233.802 492.36C234.701 492.678 235.66 492.789 236.607 492.687C234.023 490.354 232.051 487.423 230.863 484.15L230.045 476.77C231.197 477.543 232.594 477.865 233.968 477.673C231.865 476.544 231.146 473.906 230.722 471.563C229.494 465.369 228.746 459.174 227.519 452.994C227.109 455.675 226.94 458.511 226.644 460.571C226.287 462.799 226.075 465.047 226.009 467.302Z" fill="#02284C"/>
 <path d="M186.492 504.935C186.515 505.646 186.339 506.349 185.984 506.967C185.688 507.404 185.236 507.785 184.897 508.194C183.947 509.218 183.349 510.518 183.19 511.905C184.076 511.907 184.956 511.749 185.787 511.44C184.248 519.073 181.27 518.029 179.93 520.992C182.597 520.569 183.274 519.751 185.377 519.313C184.877 519.682 184.46 520.151 184.151 520.691C183.843 521.23 183.65 521.828 183.585 522.446C183.642 523.088 183.599 523.736 183.458 524.365C183.162 525.155 182.287 525.776 181.863 526.608C181.44 527.441 181.482 528.711 180.452 529.431C179.422 530.15 177.841 530.517 178.151 531.321C179.696 531.386 181.239 531.176 182.71 530.7C179.182 534.637 175.555 538.772 175.399 543.273L201.96 542.44C201.537 540.521 199.137 539.012 197.952 537.219C196.414 534.99 196.654 532.323 194.452 530.305C195.828 530.876 197.31 531.145 198.799 531.096C197.373 530.542 196.215 529.461 195.567 528.076C194.013 525.35 192.781 522.451 191.898 519.44C193.476 520.33 195.286 520.724 197.091 520.569C194.732 519.371 192.746 517.551 191.347 515.306L190.529 510.762C191.776 511.247 193.119 511.436 194.452 511.313C193.632 511.018 192.902 510.516 192.333 509.856C191.764 509.196 191.376 508.4 191.206 507.545C189.978 503.735 189.23 499.925 188.002 496.116C187.593 497.767 187.424 499.516 187.127 500.772C186.771 502.134 186.558 503.529 186.492 504.935Z" fill="#02284C"/>
 <path d="M42.8218 505.471C42.8395 506.137 42.7392 506.801 42.5254 507.432C42.356 507.856 42.0879 508.222 41.8762 508.618C41.2777 509.723 40.9307 510.947 40.86 512.202C41.4047 512.196 41.9371 512.04 42.3984 511.75C41.481 519.116 39.7169 518.1 38.9266 520.964C40.5072 520.555 40.9165 519.765 42.1584 519.356C41.5254 520.223 41.1665 521.26 41.1282 522.333C41.1634 522.95 41.1398 523.569 41.0576 524.181C40.8883 524.943 40.3661 525.593 40.1121 526.34C39.858 527.088 39.8863 528.358 39.2371 529.162C38.5879 529.967 37.6846 530.207 37.8258 530.997C38.768 531.052 39.7069 530.842 40.5354 530.39C38.4467 534.186 36.3015 538.179 36.2028 542.511L51.9529 541.707C51.6988 539.858 50.3016 538.391 49.5678 536.683C48.6645 534.524 48.8057 531.97 47.4931 530.023C48.2482 530.551 49.1549 530.819 50.0758 530.785C49.1156 530.057 48.4454 529.012 48.1847 527.836C47.2415 525.123 46.5148 522.339 46.0113 519.511C46.4099 519.911 46.8933 520.216 47.4259 520.404C47.9584 520.592 48.5264 520.658 49.0879 520.597C47.5593 519.21 46.3919 517.472 45.6867 515.532L45.2068 511.157C45.8916 511.614 46.7198 511.805 47.5355 511.694C46.9703 511.265 46.5049 510.718 46.1711 510.092C45.8373 509.466 45.6432 508.776 45.602 508.067C44.8681 504.399 44.4306 500.716 43.6968 497.047C43.4568 498.641 43.358 500.321 43.1746 501.534C42.9734 502.838 42.8556 504.152 42.8218 505.471Z" fill="#02284C"/>
 <path d="M-2.22693 546.462C-0.97931 536.963 1.48235 527.663 5.09772 518.791L-0.180544 520.922C2.38802 515.108 5.17769 509.398 8.18847 503.792L4.78723 505.019C4.99893 501.929 7.07354 499.276 7.82153 496.257C8.34371 494.126 8.20258 491.882 8.62597 489.738C9.04936 487.593 10.3195 485.363 12.4365 484.813C12.1115 484.393 11.6389 484.113 11.1145 484.029C10.5902 483.945 10.0536 484.064 9.61388 484.362C8.10379 481.06 11.251 477.617 12.1966 474.103C13.0575 470.858 12.0413 467.048 13.8901 464.226C16.0071 466.554 14.8216 469.771 15.626 472.819C16.0414 474.074 16.5803 475.284 17.2349 476.431C18.6296 479.271 19.4452 482.36 19.6341 485.519L17.4889 485.053C18.9002 487.155 18.9849 489.836 19.4083 492.334C20.0567 496.086 21.5583 499.639 23.7975 502.719C22.1271 503.211 20.372 503.346 18.6462 503.114C21.3277 505.019 21.4688 508.759 21.8499 512.103C21.8909 513.32 22.2095 514.512 22.7813 515.588C24.3055 518.071 28.2148 518.989 28.5394 521.881C26.1531 522.507 23.6518 522.556 21.243 522.022C22.7985 526.837 24.9561 531.436 27.6644 535.71C29.3262 538.434 31.3433 540.925 33.6624 543.118L27.3257 543.386C27.6461 545.266 27.2536 547.198 26.2249 548.804L-2.22693 546.462Z" fill="#02284C"/>
 <path d="M40.5213 543.174C40.3023 541.719 39.7518 540.333 38.9124 539.124C38.1228 538.248 37.5095 537.227 37.106 536.119C36.9967 534.858 37.1752 533.589 37.6282 532.408C37.8459 531.815 37.9031 531.175 37.794 530.553C37.685 529.932 37.4136 529.349 37.0072 528.866C38.151 529.465 39.4855 529.587 40.7189 529.205C40.5495 528.146 39.5616 527.427 38.9265 526.566C37.5152 524.647 37.7552 521.994 37.3318 519.638C36.716 517.13 35.6806 514.745 34.2693 512.583C35.5563 513.348 37.0083 513.793 38.5032 513.881C36.7683 510.877 35.4979 507.627 34.735 504.243C35.5291 504.701 36.4685 504.838 37.36 504.624C34.9043 501.802 34.6503 498.006 34.3257 494.239C33.9023 489.328 32.9144 485.773 32.3922 481.017C32.2229 484.206 31.3055 489.145 31.0797 491.939C30.8539 494.733 28.4265 498.345 27.8478 499.756C28.0757 499.445 28.3729 499.191 28.7158 499.015C29.0587 498.839 29.4381 498.745 29.8237 498.74C28.8292 502.662 27.6279 506.529 26.2248 510.325L28.2148 510.494C26.3567 513.251 25.2567 516.448 25.0252 519.765L26.8599 519.92C26.2531 521.331 27.0999 523.053 26.4648 524.449C26.1766 524.954 25.836 525.427 25.4486 525.861C23.4587 528.556 24.0373 533.015 21.2147 534.722C22.4377 534.757 23.657 534.571 24.8135 534.172C25.3216 534.426 25.1523 535.202 24.8135 535.696C23.501 537.897 21.3841 539.689 20.7631 542.186C20.7161 542.296 20.6919 542.413 20.6919 542.532C20.6919 542.651 20.7161 542.769 20.7631 542.878C20.8901 543.075 21.2712 543.089 21.3417 542.878L20.5232 544.289L40.5213 543.174Z" fill="#02284C"/>
 <path d="M210.484 488.806C210.462 489.626 210.586 490.443 210.851 491.219C211.063 491.727 211.388 492.179 211.642 492.63C212.375 493.989 212.799 495.492 212.884 497.033C212.213 497.023 211.558 496.828 210.992 496.468C212.107 505.499 214.281 504.271 215.226 507.757C213.279 507.263 212.785 506.346 211.261 505.781C212.066 506.856 212.524 508.151 212.573 509.492C212.529 510.251 212.557 511.011 212.658 511.764C212.869 512.71 213.519 513.5 213.829 514.417C214.21 515.546 214.111 516.9 214.902 517.803C215.692 518.707 216.807 519.087 216.581 520.047C215.424 520.119 214.27 519.865 213.25 519.313C215.819 523.97 218.458 528.866 218.571 534.186L199.222 533.198C199.533 530.926 201.254 529.134 202.144 527.032C203.258 524.393 203.089 521.232 204.684 518.862C203.757 519.514 202.641 519.841 201.508 519.793C202.693 518.915 203.528 517.645 203.865 516.209C205.023 512.879 205.914 509.463 206.533 505.993C206.043 506.486 205.449 506.862 204.794 507.094C204.14 507.326 203.441 507.408 202.75 507.333C204.651 505.638 206.105 503.501 206.984 501.111L207.577 495.735C206.745 496.283 205.743 496.513 204.754 496.384C206.293 495.565 206.787 493.646 207.125 491.939C208.029 487.424 208.537 482.922 209.454 478.407C209.75 480.368 209.877 482.428 210.103 483.924C210.335 485.542 210.462 487.172 210.484 488.806Z" fill="#02284C"/>
   </g>
 <g style="mix-blend-mode:screen">
 <path class="sun" d="M90.4383 291.886C108.754 291.886 123.602 277.035 123.602 258.716C123.602 240.396 108.754 225.545 90.4383 225.545C72.1223 225.545 57.2743 240.396 57.2743 258.716C57.2743 277.035 72.1223 291.886 90.4383 291.886Z" fill="#FAE481"/>
 </g>
 <path class="cloud2" opacity="0.3" d="M60.1567 177.182C58.8839 174.87 56.7893 173.118 54.2862 172.273C51.7832 171.427 49.0536 171.549 46.6361 172.614C46.443 171.421 45.9765 170.288 45.273 169.304C44.5694 168.32 43.6478 167.512 42.58 166.942C41.5121 166.372 40.3269 166.056 39.1166 166.018C37.9064 165.981 36.7038 166.223 35.6026 166.725C34.952 165.052 33.7442 163.653 32.1821 162.765C30.62 161.876 28.7991 161.551 27.0255 161.845C25.2519 162.14 23.6338 163.035 22.4435 164.38C21.2531 165.725 20.5631 167.439 20.4894 169.232C19.0561 169.839 17.7746 170.755 16.7362 171.913C16.3419 170.967 15.6704 170.162 14.8097 169.604C13.949 169.046 12.9394 168.761 11.9134 168.785C10.8873 168.81 9.89278 169.144 9.06021 169.743C8.22764 170.343 7.59595 171.179 7.24802 172.143C6.14861 171.564 4.93411 171.235 3.69207 171.181C2.45003 171.126 1.2114 171.348 0.0655031 171.829C-1.0804 172.311 -2.10502 173.04 -2.9345 173.965C-3.76397 174.889 -4.37762 175.986 -4.7312 177.176L60.1567 177.182Z" fill="#F1F2F2"/>
 <path class="cloud3" opacity="0.3" d="M330.341 82.5835C330.03 80.0912 328.818 77.7981 326.933 76.1353C325.048 74.4725 322.619 73.5546 320.104 73.5542C320.104 70.6382 319.217 67.791 317.559 65.3902C315.901 62.9894 313.552 61.1485 310.822 60.1116C308.092 59.0747 305.111 58.8908 302.274 59.5843C299.438 60.2779 296.879 61.816 294.938 63.9948C293.748 63.6854 292.524 63.5291 291.295 63.5296C291.151 63.5296 291.008 63.5296 290.864 63.5296C289.892 60.1599 287.732 57.255 284.783 55.351C281.834 53.447 278.294 52.6725 274.817 53.1706C271.341 53.6686 268.162 55.4055 265.867 58.0606C263.573 60.7157 262.318 64.1098 262.335 67.6164C262.335 67.7473 262.335 67.8781 262.335 68.009C260.216 67.4093 257.962 67.4987 255.898 68.2642C255.007 66.7803 253.756 65.5444 252.261 64.6705C250.765 63.7965 249.073 63.3127 247.341 63.2636C245.609 63.2145 243.892 63.6017 242.35 64.3896C240.807 65.1774 239.488 66.3405 238.514 67.7715C237.031 67.5126 235.509 67.5809 234.055 67.9713C232.601 68.3618 231.251 69.065 230.098 70.0318C228.945 70.9985 228.018 72.2053 227.382 73.5676C226.746 74.9299 226.416 76.4146 226.415 77.9177C226.415 78.0787 226.415 78.2377 226.427 78.3986C223.776 77.5934 220.951 77.5592 218.282 78.3001C215.613 79.0409 213.21 80.5261 211.357 82.5816L330.341 82.5835Z" fill="#F1F2F2"/>
 <path class="cloud1" opacity="0.3" d="M112.45 71.4068C111.178 69.0929 109.084 67.3392 106.58 66.4921C104.077 65.6449 101.346 65.766 98.9274 66.8312C98.7344 65.6378 98.2679 64.505 97.5643 63.5211C96.8608 62.5372 95.9392 61.7288 94.8713 61.1589C93.8035 60.589 92.6182 60.2729 91.408 60.2354C90.1977 60.1979 88.9951 60.4399 87.8939 60.9425C87.242 59.2695 86.0329 57.8717 84.4699 56.9842C82.907 56.0967 81.0856 55.7737 79.3121 56.0695C77.5386 56.3653 75.9213 57.2619 74.7322 58.6084C73.543 59.9549 72.8546 61.6692 72.7828 63.4629C71.3495 64.0703 70.068 64.9858 69.0296 66.1442C68.6352 65.1982 67.9637 64.3932 67.103 63.835C66.2423 63.2768 65.2327 62.9914 64.2067 63.0162C63.1807 63.041 62.1861 63.3749 61.3535 63.9742C60.521 64.5734 59.8893 65.4098 59.5413 66.3739C58.4419 65.7943 57.2274 65.4656 55.9854 65.4113C54.7434 65.3571 53.5047 65.5787 52.3588 66.0601C51.2129 66.5415 50.1883 67.2708 49.3588 68.1954C48.5294 69.12 47.9157 70.2168 47.5621 71.4068H112.45Z" fill="#F1F2F2"/>
 <path class="cloud4" opacity="0.3" d="M117.772 138.95C117.877 138.486 118.106 138.059 118.434 137.714C118.762 137.369 119.178 137.119 119.637 136.991C120.097 136.864 120.582 136.862 121.042 136.988C121.502 137.113 121.919 137.361 122.249 137.704C123.079 136.987 124.107 136.537 125.198 136.412C125.223 135.794 125.388 135.19 125.681 134.645C125.975 134.1 126.388 133.629 126.891 133.268C127.394 132.906 127.973 132.664 128.584 132.559C129.194 132.454 129.821 132.49 130.416 132.663C130.831 131.748 131.572 131.019 132.495 130.618C133.418 130.217 134.458 130.173 135.412 130.494C136.366 130.815 137.166 131.479 137.657 132.356C138.149 133.233 138.297 134.261 138.072 135.24C138.775 135.349 139.45 135.593 140.059 135.961C140.555 135.615 141.118 135.377 141.711 135.26C142.304 135.143 142.915 135.151 143.505 135.283C144.095 135.415 144.651 135.668 145.138 136.026C145.625 136.384 146.032 136.839 146.333 137.362C146.688 137.117 147.099 136.963 147.527 136.913C147.956 136.863 148.391 136.919 148.793 137.076C149.195 137.233 149.553 137.487 149.834 137.814C150.115 138.141 150.312 138.532 150.407 138.952L117.772 138.95Z" fill="#F1F2F2"/>
 <rect class="light" x="211.094" y="11.8082" width="40.7613" height="22.2914" rx="11.1457" fill="#27173A"/>
 <circle cx="222.24" cy="22.9539" r="7.9612" fill="#FFC207"/>
 <circle cx="212.368" cy="22.6354" r="1.27379" fill="#27173A"/>
 </g>
 <defs>
 <linearGradient id="paint0_linear_2_4" x1="131.163" y1="0.344055" x2="131.163" y2="524.51" gradientUnits="userSpaceOnUse">
 <stop stop-color="#717374"/>
 <stop offset="1" stop-color="#4D4D4F"/>
 </linearGradient>
 <linearGradient id="paint1_linear_2_4" x1="122.631" y1="524.308" x2="122.631" y2="-12.4545" gradientUnits="userSpaceOnUse">
 <stop offset="0.33" stop-color="#FBE57F"/>
 <stop offset="0.4" stop-color="#FDCA8E"/>
 <stop offset="0.48" stop-color="#FEAE9D"/>
 <stop offset="0.52" stop-color="#FFA3A3"/>
 <stop offset="0.55" stop-color="#F8A3A3"/>
 <stop offset="0.59" stop-color="#E4A3A3"/>
 <stop offset="0.64" stop-color="#C3A4A4"/>
 <stop offset="0.734375" stop-color="#96A5A4"/>
 <stop offset="0.838542" stop-color="#5DA6A5"/>
 <stop offset="0.9999" stop-color="#51A6A5"/>
 <stop offset="1" stop-color="#06385D"/>
 </linearGradient>
 </defs>
 </svg>